<svg width="9" height="12" viewBox="0 0 9 12" fill="none" xmlns="http://www.w3.org/2000/svg">
<path d="M4.62358 11.1392C3.85795 11.1392 3.17685 11.0149 2.58026 10.7663C1.98698 10.5144 1.52131 10.1714 1.18324 9.73722C0.84517 9.30303 0.676136 8.81084 0.676136 8.26065C0.676136 7.83641 0.772254 7.44697 0.964489 7.09233C1.16004 6.73438 1.42519 6.43774 1.75994 6.20241C2.0947 5.96378 2.46922 5.81132 2.88352 5.74503V5.67543C2.33996 5.56605 1.89915 5.30256 1.56108 4.88494C1.22301 4.46401 1.05398 3.97514 1.05398 3.41832C1.05398 2.89134 1.2081 2.42235 1.51634 2.01136C1.82457 1.59706 2.24716 1.27225 2.78409 1.03693C3.32434 0.798295 3.9375 0.678977 4.62358 0.678977C5.30966 0.678977 5.92116 0.798295 6.4581 1.03693C6.99834 1.27557 7.42259 1.60204 7.73082 2.01633C8.03906 2.42732 8.19484 2.89465 8.19815 3.41832C8.19484 3.97846 8.02249 4.46733 7.68111 4.88494C7.33973 5.30256 6.90223 5.56605 6.36861 5.67543V5.74503C6.77628 5.81132 7.14583 5.96378 7.47727 6.20241C7.81203 6.43774 8.07718 6.73438 8.27273 7.09233C8.47159 7.44697 8.57268 7.83641 8.57599 8.26065C8.57268 8.81084 8.40199 9.30303 8.06392 9.73722C7.72585 10.1714 7.25852 10.5144 6.66193 10.7663C6.06866 11.0149 5.3892 11.1392 4.62358 11.1392ZM4.62358 9.55824C4.96496 9.55824 5.26326 9.49692 5.51847 9.37429C5.77367 9.24834 5.97254 9.07599 6.11506 8.85724C6.26089 8.63518 6.33381 8.37997 6.33381 8.09162C6.33381 7.79664 6.25923 7.53646 6.11009 7.31108C5.96094 7.08239 5.75876 6.90341 5.50355 6.77415C5.24834 6.64157 4.95502 6.57528 4.62358 6.57528C4.29545 6.57528 4.00213 6.64157 3.74361 6.77415C3.48509 6.90341 3.28125 7.08239 3.1321 7.31108C2.98627 7.53646 2.91335 7.79664 2.91335 8.09162C2.91335 8.37997 2.98461 8.63518 3.12713 8.85724C3.26965 9.07599 3.47017 9.24834 3.72869 9.37429C3.98722 9.49692 4.28551 9.55824 4.62358 9.55824ZM4.62358 5.00923C4.90862 5.00923 5.16217 4.95123 5.38423 4.83523C5.6063 4.71922 5.7803 4.55848 5.90625 4.35298C6.0322 4.14749 6.09517 3.91051 6.09517 3.64205C6.09517 3.37689 6.0322 3.14489 5.90625 2.94602C5.7803 2.74384 5.60795 2.58641 5.3892 2.47372C5.17045 2.35772 4.91525 2.29972 4.62358 2.29972C4.33523 2.29972 4.08002 2.35772 3.85795 2.47372C3.63589 2.58641 3.46188 2.74384 3.33594 2.94602C3.2133 3.14489 3.15199 3.37689 3.15199 3.64205C3.15199 3.91051 3.21496 4.14749 3.34091 4.35298C3.46686 4.55848 3.64086 4.71922 3.86293 4.83523C4.08499 4.95123 4.33854 5.00923 4.62358 5.00923Z" fill="white"/>
</svg>
